# xmcd
#
# Track frame offsets: 
#        150
#        13012
#        26422
#        39982
#        52615
#        64015
#        73507
#        85655
#        94540
#        105610
#        119035
#        131177
#
# Disc length: 1867 seconds
#
# Revision: 1
# Processed by: cddbd v1.5.1PL0 Copyright (c) Steve Scherf et al.
# Submitted via: ExactAudioCopy v0.95a5
#
DISCID=9307490c
DTITLE=Merle Haggard And The Strangers - Sing Me Back Home
DYEAR=1968
DGENRE=Country
TTITLE0=Sing Me Back Home
TTITLE1=Look Over Me
TTITLE2=Son of Hickory Holler's Tramp
TTITLE3=Wine Take Me Away
TTITLE4=If You See My Baby
TTITLE5=Where Does the Good Times Go
TTITLE6=I'll Leave the Bottle on the Bar
TTITLE7=My Past Is Present
TTITLE8=Home Is Where a Kid Grows Up
TTITLE9=Mom and Dad's Waltz
TTITLE10=Good Times
TTITLE11=Seeing Eye Dog
EXTD=
EXTT0=
EXTT1=
EXTT2=
EXTT3=
EXTT4=
EXTT5=
EXTT6=
EXTT7=
EXTT8=
EXTT9=
EXTT10=
EXTT11=
PLAYORDER=
